<?xml version="1.0" encoding="utf-8"?>

<!-- Uploaded to: SVG Repo, www.svgrepo.com, Generator: SVG Repo Mixer Tools -->
<svg version="1.1" id="Icons" xmlns="http://www.w3.org/2000/svg" xmlns:xlink="http://www.w3.org/1999/xlink" 
	 viewBox="0 0 32 32" xml:space="preserve">
<style type="text/css">
	.st0{fill:none;stroke:#000000;stroke-width:2;stroke-linecap:round;stroke-linejoin:round;stroke-miterlimit:10;}
</style>
<line class="st0" x1="18" y1="14" x2="18" y2="7"/>
<line class="st0" x1="21" y1="14" x2="21" y2="7"/>
<line class="st0" x1="24" y1="14" x2="24" y2="8"/>
<path class="st0" d="M15,21.9V31l2-1l2,1l2-1l2,1l2-1l2,1V17.5V15V8.5C27,7.7,26.3,7,25.5,7S24,7.7,24,8.5v-1C24,6.7,23.3,6,22.5,6
	S21,6.7,21,7.5v-1C21,5.7,20.3,5,19.5,5S18,5.7,18,6.5v1C18,6.7,17.3,6,16.5,6S15,6.7,15,7.5V15v2.4l-2.5-2.5
	c-0.6-0.6-1.6-0.6-2.3,0s-0.6,1.6,0,2.3L15,21.9z"/>
<path class="st0" d="M15,26.5L14,27l-2-1l-2,1l-2-1l-2,1V13.5V11V4.5C6,3.7,6.7,3,7.5,3S9,3.7,9,4.5v-1C9,2.7,9.7,2,10.5,2
	S12,2.7,12,3.5v-1C12,1.7,12.7,1,13.5,1C14.3,1,15,1.7,15,2.5v1C15,2.7,15.7,2,16.5,2C17.3,2,18,2.7,18,3.5"/>
</svg>