<svg width="651" height="179" viewBox="0 0 651 179" fill="none" xmlns="http://www.w3.org/2000/svg">
<mask id="mask0_0_1" style="mask-type:alpha" maskUnits="userSpaceOnUse" x="0" y="0" width="179" height="179">
<rect width="179" height="179" rx="25" fill="#F0FFAC"/>
</mask>
<g mask="url(#mask0_0_1)">
<rect x="-10.9146" y="-5.16943" width="191.129" height="191.129" rx="25" transform="rotate(-6.31575 -10.9146 -5.16943)" fill="#FFF8AC"/>
<rect x="5.1442" y="43.0603" width="176.728" height="176.728" rx="25" transform="rotate(6.603 5.1442 43.0603)" fill="#024A70"/>
<rect x="-5.94479" y="94.6116" width="191.129" height="191.129" rx="25" transform="rotate(-6.31575 -5.94479 94.6116)" fill="black"/>
</g>
<rect x="19.0548" y="96.5488" width="69.9451" height="69.9451" rx="24.5" stroke="black"/>
<path d="M77.6758 113.785L45.1593 146.302L30.379 131.521" stroke="white" stroke-width="4" stroke-linecap="round" stroke-linejoin="round"/>
<path d="M229.38 141V52.115H194.58V39.5H278.535V52.115H243.735V141H229.38ZM335.896 141V124.76L335.171 121.715V94.02C335.171 88.1233 333.431 83.58 329.951 80.39C326.568 77.1033 321.444 75.46 314.581 75.46C310.038 75.46 305.591 76.2333 301.241 77.78C296.891 79.23 293.218 81.2117 290.221 83.725L284.421 73.285C288.384 70.095 293.121 67.6783 298.631 66.035C304.238 64.295 310.086 63.425 316.176 63.425C326.713 63.425 334.833 65.9867 340.536 71.11C346.239 76.2333 349.091 84.0633 349.091 94.6V141H335.896ZM310.666 141.87C304.963 141.87 299.936 140.903 295.586 138.97C291.333 137.037 288.046 134.378 285.726 130.995C283.406 127.515 282.246 123.6 282.246 119.25C282.246 115.093 283.213 111.323 285.146 107.94C287.176 104.557 290.414 101.85 294.861 99.82C299.404 97.79 305.494 96.775 313.131 96.775H337.491V106.78H313.711C306.751 106.78 302.063 107.94 299.646 110.26C297.229 112.58 296.021 115.383 296.021 118.67C296.021 122.44 297.519 125.485 300.516 127.805C303.513 130.028 307.669 131.14 312.986 131.14C318.206 131.14 322.749 129.98 326.616 127.66C330.579 125.34 333.431 121.957 335.171 117.51L337.926 127.08C336.089 131.623 332.851 135.248 328.211 137.955C323.571 140.565 317.723 141.87 310.666 141.87ZM396.891 141.87C390.511 141.87 384.421 141 378.621 139.26C372.918 137.52 368.423 135.393 365.136 132.88L370.936 121.86C374.223 124.083 378.283 125.968 383.116 127.515C387.95 129.062 392.88 129.835 397.906 129.835C404.383 129.835 409.023 128.917 411.826 127.08C414.726 125.243 416.176 122.682 416.176 119.395C416.176 116.978 415.306 115.093 413.566 113.74C411.826 112.387 409.506 111.372 406.606 110.695C403.803 110.018 400.661 109.438 397.181 108.955C393.701 108.375 390.221 107.698 386.741 106.925C383.261 106.055 380.071 104.895 377.171 103.445C374.271 101.898 371.951 99.82 370.211 97.21C368.471 94.5033 367.601 90.9267 367.601 86.48C367.601 81.84 368.906 77.78 371.516 74.3C374.126 70.82 377.8 68.1617 382.536 66.325C387.37 64.3917 393.073 63.425 399.646 63.425C404.673 63.425 409.748 64.0533 414.871 65.31C420.091 66.47 424.345 68.1617 427.631 70.385L421.686 81.405C418.206 79.085 414.581 77.49 410.811 76.62C407.041 75.75 403.271 75.315 399.501 75.315C393.411 75.315 388.868 76.33 385.871 78.36C382.875 80.2933 381.376 82.8067 381.376 85.9C381.376 88.51 382.246 90.54 383.986 91.99C385.823 93.3433 388.143 94.4067 390.946 95.18C393.846 95.9533 397.036 96.63 400.516 97.21C403.996 97.6933 407.476 98.37 410.956 99.24C414.436 100.013 417.578 101.125 420.381 102.575C423.281 104.025 425.601 106.055 427.341 108.665C429.178 111.275 430.096 114.755 430.096 119.105C430.096 123.745 428.743 127.757 426.036 131.14C423.33 134.523 419.511 137.182 414.581 139.115C409.651 140.952 403.755 141.87 396.891 141.87ZM458.803 122.44L459.093 104.605L503.318 64.15H520.138L486.208 97.5L478.668 103.88L458.803 122.44ZM447.493 141V33.41H461.413V141H447.493ZM506.218 141L476.058 103.59L485.048 92.425L523.328 141H506.218ZM536.843 141V64.15H550.763V141H536.843ZM543.803 49.36C541.097 49.36 538.825 48.49 536.988 46.75C535.248 45.01 534.378 42.8833 534.378 40.37C534.378 37.76 535.248 35.585 536.988 33.845C538.825 32.105 541.097 31.235 543.803 31.235C546.51 31.235 548.733 32.105 550.473 33.845C552.31 35.4883 553.228 37.5667 553.228 40.08C553.228 42.69 552.358 44.9133 550.618 46.75C548.878 48.49 546.607 49.36 543.803 49.36ZM610.256 141.87C602.523 141.87 595.66 140.178 589.666 136.795C583.673 133.412 578.936 128.772 575.456 122.875C571.976 116.882 570.236 110.115 570.236 102.575C570.236 94.9383 571.976 88.1717 575.456 82.275C578.936 76.3783 583.673 71.7867 589.666 68.5C595.66 65.1167 602.523 63.425 610.256 63.425C617.893 63.425 624.708 65.1167 630.701 68.5C636.791 71.7867 641.528 76.3783 644.911 82.275C648.391 88.075 650.131 94.8417 650.131 102.575C650.131 110.212 648.391 116.978 644.911 122.875C641.528 128.772 636.791 133.412 630.701 136.795C624.708 140.178 617.893 141.87 610.256 141.87ZM610.256 129.69C615.186 129.69 619.585 128.578 623.451 126.355C627.415 124.132 630.508 120.99 632.731 116.93C634.955 112.773 636.066 107.988 636.066 102.575C636.066 97.065 634.955 92.3283 632.731 88.365C630.508 84.305 627.415 81.1633 623.451 78.94C619.585 76.7167 615.186 75.605 610.256 75.605C605.326 75.605 600.928 76.7167 597.061 78.94C593.195 81.1633 590.101 84.305 587.781 88.365C585.461 92.3283 584.301 97.065 584.301 102.575C584.301 107.988 585.461 112.773 587.781 116.93C590.101 120.99 593.195 124.132 597.061 126.355C600.928 128.578 605.326 129.69 610.256 129.69Z" fill="#024A70"/>
</svg>
